<?xml version="1.0" encoding="UTF-8"?>
<svg id="_레이어_1" data-name="레이어 1" xmlns="http://www.w3.org/2000/svg" viewBox="0 0 70.95 40.72">
  <defs>
    <style>
      .cls-1 {
        fill: #757575;
      }

      .cls-2 {
        fill: #727272;
      }

      .cls-3 {
        fill: #737373;
      }

      .cls-4 {
        fill: #6fb82e;
      }

      .cls-5 {
        fill: #0a4195;
      }

      .cls-6 {
        fill: #fefefe;
      }

      .cls-7 {
        fill: #707171;
      }
    </style>
  </defs>
  <path class="cls-2" d="M65.09,39.95l.69-1.04c.62.46,1.33.63,2.07.56.64-.06,1.06-.55,1-1.2l-.74.31c-.77.32-2.58-.01-3.22-1.33-.38-.78-.38-1.74.01-2.5.72-1.4,2.7-1.75,3.92-.97.04-.1.01-.3.1-.31.46-.04.89-.02,1.37,0v5.11c-.01.58-.3,1.17-.72,1.54-1.05.93-3.31.76-4.47-.15ZM68.91,36.02c0-.8-.65-1.44-1.44-1.44s-1.44.65-1.44,1.44.65,1.44,1.44,1.44,1.44-.65,1.44-1.44Z"/>
  <path class="cls-2" d="M31.75,36.05c-.84.76-2.27.69-3.38.66l-.04,2.03-1.5.02v-7.02s2.97,0,2.97,0c.69,0,1.31.2,1.86.62,1.08.95,1.17,2.71.08,3.69ZM30.23,35.32c.6-.13.84-.82.73-1.33-.26-1.22-1.64-.95-2.6-.95v2.33c.63-.06,1.25.08,1.88-.05Z"/>
  <path class="cls-2" d="M40.19,38.76l-.07-.48c-.52.48-1.21.62-1.92.55-1.78-.17-2.57-1.87-2.22-3.48.26-1.2,1.27-2,2.5-2,.62,0,1.2.14,1.64.57l.06-.48,1.4.02v5.25s-1.39.04-1.39.04ZM40.25,36.1c0-.82-.67-1.49-1.49-1.49s-1.49.67-1.49,1.49.67,1.49,1.49,1.49,1.49-.67,1.49-1.49Z"/>
  <path class="cls-2" d="M45.55,34.56c-.57-.06-1.09.38-1.1.98l-.04,3.22h-1.44s0-5.29,0-5.29h1.43c.04.13,0,.25.07.38.81-.59,1.96-.66,2.79-.03.44.33.6.92.65,1.48.1,1.15,0,2.27.04,3.43-.56.04-1.01.02-1.52,0l-.02-3.27c0-.49-.34-.84-.86-.89Z"/>
  <path class="cls-3" d="M61.42,34.64c-.38-.12-.73-.1-1.03.13-.21.17-.4.49-.41.84l-.03,3.12h-1.43s0-5.27,0-5.27l1.42-.02c.04.14,0,.26.06.4.83-.58,2.01-.68,2.83-.03.44.35.61.95.61,1.5l.02,3.43-1.46-.02-.03-3.27c0-.35-.23-.7-.56-.81Z"/>
  <path class="cls-2" d="M51.92,34.57c-.64-.08-1.17.4-1.18,1.03l-.03,3.14-1.41-.02.02-5.27,1.39.02c.02.11,0,.31.12.34.85-.55,1.99-.61,2.79.03.42.34.58.94.58,1.47l.02,3.46-1.45-.03-.03-3.27c0-.46-.33-.83-.82-.89Z"/>
  <rect class="cls-3" x="30.41" y="34.37" width="7.29" height="1.48" transform="translate(-1.07 69.14) rotate(-89.98)"/>
  <rect class="cls-3" x="55.69" y="33.45" width="1.46" height="5.31"/>
  <path class="cls-1" d="M57.2,31.99c.12.51-.34.92-.8.93s-.89-.4-.8-.9c.06-.39.41-.61.74-.64.37-.04.76.18.86.62Z"/>
  <g>
    <path class="cls-5" d="M46.32,28.59s-.14-.02-.14.04l-2.64-.05c-.03-.13.07-.24.2-.29.24-.08.33-.26.47-.43.41-.48.07-.24.36-1.09.05-.1-.94-1.52-.89-1.45.71.08,1.43.05,2.14.06.03,0,.08,0,.07-.04.1.01.26.03.34-.05.05-.05.15-.14.15-.28V3.71c0-.26-.11-.47-.38-.47l-3.81-.02c-.38,0-.71-.16-.96-.41-.51-.5-.7-1.18-.4-1.86C41.07.41,41.63,0,42.32,0h3.89c1.54.02,2.82,1.07,3.27,2.52.14.43.17.8.17,1.25v3.86c0,.14.02.29.09.35,1.73-1.74,3.98-3.09,6.37-3.55,1.93-.37,3.92-.35,5.81.17,4.91,1.34,8.51,5.6,8.98,10.67.36,3.87-1.04,7.55-3.86,10.17-1.39,1.29-3.29,2.42-5.13,2.85-.64.15-1.27.35-1.94.39-2.2.12-3.17.06-5.26-.62-1.93-.63-3.54-1.76-5.01-3.21-.05,1.35-.6,2.52-1.68,3.17-.54.32-1.09.58-1.68.55ZM67.47,16.45c0-4.86-3.94-8.8-8.8-8.8s-8.8,3.94-8.8,8.8,3.94,8.8,8.8,8.8,8.8-3.94,8.8-8.8Z"/>
    <path class="cls-7" d="M46.32,28.59c.01.08-.1.04-.14.04,0-.06.1-.04.14-.04Z"/>
    <path class="cls-7" d="M45.82,25.38c-.02-.05.05-.04.07-.04,0,.05-.04.04-.07.04Z"/>
  </g>
  <g>
    <path class="cls-7" d="M43.68,25.32c-.06-.07.94,1.35.89,1.45-.29.86.06.62-.36,1.09-.14.16-.23.35-.47.43-.13.04-.23.16-.2.29-.78.16-1.37-.02-1.91-.66l-2.12-2.52-1.72,1.43c-2.87,2.39-6.97,2.49-9.56-.19s-2.62-7.18.28-9.65l2.3-1.96-1.44-1.74c-1.35-1.62-1.67-3.86-.81-5.78.78-1.74,2.38-2.85,4.24-3.21.27-.05.58-.01.89-.01,2.28.01,4.27,1.49,5.04,3.53.84,2.22.2,4.67-1.59,6.15l-1.56,1.3c-.09.07-.14.21-.04.32l4.37,5.2,2.09-1.74c.47-.39,1.04-.51,1.66-.28.43.16.84.59.99,1.14.18.65-.16,1.29-.67,1.73l-1.96,1.65,1.67,2.02ZM33.32,12.95l1.76-1.49c.68-.58.93-1.51.64-2.39-.25-.76-.95-1.4-1.81-1.51-.96-.12-1.83.33-2.27,1.08-.49.84-.41,1.84.22,2.58l1.46,1.73ZM35.36,24.63l2.06-1.74-4.49-5.37c-.78.65-1.55,1.24-2.26,1.92-1.42,1.34-1.44,3.49-.13,4.9s3.39,1.51,4.84.29Z"/>
    <g>
      <path class="cls-4" d="M32.8,4.31c-1.85.36-3.46,1.47-4.24,3.21h-3.52c-.24,0-.42.16-.42.42l-.03,19.67c0,1.7-.86,4.23-1.79,5.67-1.24,1.93-2.89,3.51-4.98,4.49l-.67.31c-.22.1-1.37.49-1.6.55-1.04.25-2.09.39-3.17.37-.93-.02-1.61-.83-1.55-1.72s.79-1.52,1.69-1.53c2.55-.02,4.91-1.08,6.59-2.99,1.25-1.41,2.05-3.12,2.2-5.01.07-.96,0-1.87,0-2.82-.34.18-.43.35-.62.53-1.83,1.68-4.05,2.74-6.51,3.13-.27.04-.48.15-.78.12-.87-.08-1.75.09-2.6-.07-1.86-.35-3.01-.64-4.64-1.59-2.38-1.38-4.36-3.68-5.3-6.27l-.32-.86c-.72-1.95-.64-4.13-.19-6.18.65-2.98,2.44-5.58,4.93-7.36.74-.53,2.05-1.22,2.92-1.53,2.94-1.01,6.47-.94,9.3.42,1.46.7,2.72,1.6,3.84,2.8-.02-1.37.64-2.6,1.75-3.29.7-.44,1.52-.52,2.37-.51l7.34.03ZM21.14,16.45c0-4.86-3.94-8.8-8.8-8.8S3.53,11.59,3.53,16.45s3.94,8.8,8.8,8.8,8.8-3.94,8.8-8.8ZM21.36,24.87s-.02-.03-.03-.03-.03.02-.03.03.02.03.03.03.03-.02.03-.03Z"/>
      <circle class="cls-6" cx="21.32" cy="24.87" r=".03"/>
    </g>
  </g>
</svg>